<?xml version="1.0" standalone="no"?>
<!DOCTYPE svg PUBLIC "-//W3C//DTD SVG 20010904//EN"
 "http://www.w3.org/TR/2001/REC-SVG-20010904/DTD/svg10.dtd">
<svg version="1.0" xmlns="http://www.w3.org/2000/svg"
 width="512.000000pt" height="512.000000pt" viewBox="0 0 512.000000 512.000000"
 preserveAspectRatio="xMidYMid meet">

<g transform="translate(0.000000,512.000000) scale(0.100000,-0.100000)"
fill="#000000" stroke="none">
<path d="M2856 5099 l-26 -20 0 -250 0 -250 25 -24 c31 -32 66 -32 102 -1 l28
24 3 191 3 191 729 0 729 0 3 -511 3 -511 24 -19 c32 -26 82 -25 109 4 l22 23
0 563 0 562 -25 24 -24 25 -839 0 c-834 0 -839 0 -866 -21z"/>
<path d="M63 4403 c-28 -6 -63 -49 -63 -78 0 -12 9 -34 21 -49 l20 -26 349 0
c192 0 351 -3 354 -8 2 -4 32 -124 65 -267 301 -1286 624 -2656 652 -2757 19
-74 -101 -68 1555 -66 l1486 3 19 24 c26 32 25 82 -4 109 l-23 22 -1445 0
-1445 0 -47 199 c-26 109 -47 203 -47 210 0 8 404 11 1556 11 1010 0 1562 3
1574 10 10 5 23 25 29 42 20 63 451 1898 451 1922 0 13 -9 34 -19 47 l-19 24
-2030 3 -2030 2 -36 153 c-20 83 -50 212 -68 286 -21 90 -39 143 -54 160 l-22
26 -379 1 c-208 1 -388 0 -400 -3z m4870 -810 c-3 -16 -95 -404 -203 -863
l-196 -835 -1534 0 -1533 0 -197 835 c-108 459 -200 847 -203 863 l-7 27 1940
0 1940 0 -7 -27z"/>
<path d="M1577 4388 c-30 -24 -37 -68 -37 -237 0 -174 8 -224 40 -241 31 -16
79 -11 100 10 18 18 20 33 20 170 l0 150 975 0 975 0 0 -145 c0 -142 1 -147
25 -170 34 -35 86 -34 114 1 20 25 21 40 21 224 0 184 -1 199 -21 224 l-20 26
-1088 0 c-854 0 -1091 -3 -1104 -12z"/>
<path d="M1960 999 c-91 -15 -194 -71 -265 -142 -109 -109 -150 -220 -143
-383 4 -91 8 -109 41 -178 92 -193 283 -308 487 -292 415 31 616 507 348 828
-105 126 -301 196 -468 167z m161 -163 c107 -25 191 -92 240 -191 20 -42 24
-65 24 -140 0 -77 -4 -98 -26 -145 -33 -70 -96 -132 -168 -168 -48 -23 -69
-27 -141 -27 -76 0 -93 4 -152 33 -73 36 -124 87 -160 161 -19 39 -23 62 -23
146 0 89 3 106 27 150 49 93 143 165 242 185 60 12 75 11 137 -4z"/>
<path d="M3823 999 c-269 -47 -454 -298 -416 -565 42 -292 325 -486 612 -419
260 62 431 325 378 582 -48 227 -229 388 -457 406 -36 3 -88 1 -117 -4z m198
-174 c104 -37 185 -129 214 -243 21 -81 13 -147 -26 -228 -34 -73 -90 -126
-168 -163 -74 -34 -200 -36 -273 -3 -173 78 -253 284 -175 454 76 167 256 243
428 183z"/>
</g>
</svg>
